<?xml version="1.0" standalone="no"?>
<!DOCTYPE svg PUBLIC "-//W3C//DTD SVG 20010904//EN"
 "http://www.w3.org/TR/2001/REC-SVG-20010904/DTD/svg10.dtd">
<svg version="1.0" xmlns="http://www.w3.org/2000/svg"
 width="256.000000pt" height="256.000000pt" viewBox="0 0 256.000000 256.000000"
 preserveAspectRatio="xMidYMid meet">

<g transform="scale(6.750,6.750)" fill="#000000" stroke="none">
	<path class="st0" d="M38,27h-2V13h2V27z M32.9,10.7l0.8,2.3l-10.7,3.6l-0.8-2.3L32.9,10.7z M23,1.3L33.7,6l-1,2.2L22.1,3.5L23,1.3z
		 M20,33h-2V20h2V33z M22.9,36.8l-0.8-2.3l10.7-3.6l0.8,2.3L22.9,36.8z M20,18h-2v-2h2V18z M20,2h-2V0l2,0V2z M38,10h-2V8h2V10z
		 M2,27H0l0-14h2V27z M5.1,10.8l10.7,3.6l-0.8,2.3L4.4,13L5.1,10.8z M15,1.3l1,2.2L5.2,8.2L4.3,6L15,1.3z M2,10H0l0-2h2V10z M20,38
		h-2v-2h2V38z M38,32h-2v-2h2V32z M15.1,36.8L4.4,33.2l0.8-2.3l10.7,3.6L15.1,36.8z M2,32H0l0-2h2V32z"/>
</g>
</svg>
